<?xml version="1.0" standalone="no"?>
<!DOCTYPE svg PUBLIC "-//W3C//DTD SVG 20010904//EN"
 "http://www.w3.org/TR/2001/REC-SVG-20010904/DTD/svg10.dtd">
<svg version="1.0" xmlns="http://www.w3.org/2000/svg"
 width="588.000000pt" height="500.000000pt" viewBox="0 0 588.000000 500.000000"
 preserveAspectRatio="xMidYMid meet">

<g transform="translate(0.000000,500.000000) scale(0.100000,-0.100000)"
fill="#000000" stroke="none">
<path d="M4186 4519 c-10 -6 -26 -19 -35 -29 -9 -9 -43 -45 -76 -79 -57 -58
-66 -87 -12 -37 15 14 29 20 32 15 10 -15 25 -10 19 6 -5 11 1 15 20 15 15 0
29 7 32 15 4 8 11 15 16 15 6 0 8 -6 5 -14 -4 -10 0 -12 14 -9 10 3 19 9 19
14 0 19 19 8 32 -18 21 -43 38 -40 38 6 0 23 -4 49 -9 59 -5 9 -12 25 -15 35
-6 19 -50 23 -80 6z"/>
<path d="M4230 4390 c0 -5 5 -10 10 -10 6 0 10 5 10 10 0 6 -4 10 -10 10 -5 0
-10 -4 -10 -10z"/>
<path d="M1015 3270 c-4 -6 -10 -8 -15 -5 -5 3 -35 -20 -65 -52 -51 -53 -69
-81 -104 -166 -13 -33 -15 -133 -2 -141 5 -3 12 -21 15 -40 4 -19 12 -39 20
-45 7 -6 21 -29 31 -51 10 -22 22 -37 26 -34 5 3 12 -2 15 -11 4 -9 20 -23 36
-31 17 -9 27 -11 24 -6 -3 6 5 5 19 -1 14 -7 25 -15 25 -19 0 -12 898 -10 905
2 3 6 11 8 16 5 5 -4 9 -2 9 2 0 5 9 9 21 10 24 2 74 38 123 89 54 55 92 185
75 248 -5 17 -8 35 -8 39 0 4 -7 15 -16 23 -8 9 -15 22 -15 30 0 8 -26 41 -57
72 -95 94 -82 92 -615 92 -299 0 -459 -4 -463 -10z m648 -91 c-3 -8 -15 -28
-29 -44 -13 -15 -24 -36 -24 -46 0 -10 -4 -21 -10 -24 -5 -3 -10 -35 -10 -70
0 -74 23 -134 70 -188 17 -20 29 -41 25 -47 -4 -6 -110 -10 -304 -10 -293 0
-298 0 -347 24 -85 41 -124 101 -124 191 0 63 37 152 73 175 85 55 84 55 394
55 259 0 289 -2 286 -16z"/>
<path d="M2719 3257 c-63 -25 -133 -80 -143 -114 -4 -13 -11 -23 -16 -23 -8 0
-25 -48 -22 -62 1 -5 -3 -8 -9 -8 -15 0 -6 -155 12 -202 8 -21 17 -38 21 -38
5 0 8 -4 8 -9 0 -4 20 -29 45 -53 25 -25 45 -43 45 -40 0 2 7 -2 17 -9 9 -8
23 -14 32 -15 9 0 29 -6 45 -12 44 -19 1076 -16 1102 2 10 8 24 12 31 9 7 -3
13 0 13 5 0 6 9 14 21 17 30 10 111 93 131 135 29 60 40 110 35 153 -5 48 -10
70 -17 77 -3 3 -16 25 -29 50 -30 55 -67 97 -103 116 -15 8 -30 14 -33 14 -3
0 -18 6 -35 15 -25 13 -104 15 -562 14 -522 -1 -534 -1 -589 -22z m892 -82
c-79 -88 -97 -125 -100 -210 -2 -65 13 -110 60 -177 11 -14 19 -29 19 -32 0
-4 -186 -6 -412 -4 l-413 3 -42 24 c-23 13 -57 45 -75 70 -29 41 -33 54 -35
120 -2 67 1 78 28 117 16 24 46 56 66 71 l36 28 211 5 c116 3 315 5 443 5 231
0 232 0 214 -20z"/>
<path d="M1870 2553 c0 -4 -18 -8 -40 -7 -22 0 -40 -4 -40 -9 0 -5 -6 -7 -14
-4 -26 10 -38 -17 -27 -59 5 -22 14 -56 19 -76 18 -69 55 -133 105 -180 l50
-46 -7 -80 c-8 -103 -30 -173 -62 -206 -32 -31 -65 -33 -122 -6 -49 24 -65 25
-82 5 -14 -17 -6 -60 14 -80 32 -32 83 -55 123 -55 46 0 123 26 123 41 0 5 10
14 23 18 18 7 29 3 57 -24 44 -42 152 -105 179 -105 12 0 21 -4 21 -8 0 -5 39
-17 86 -27 90 -19 242 -17 294 3 14 5 43 15 65 21 22 7 49 16 60 21 11 5 41
18 68 30 26 11 47 25 47 31 0 6 4 8 9 5 14 -9 101 78 101 102 0 34 -20 69 -47
81 -43 20 -73 13 -123 -29 -27 -22 -79 -55 -117 -72 -65 -31 -74 -32 -193 -33
-114 0 -130 2 -180 26 -102 48 -163 137 -174 255 -4 38 -3 74 1 80 4 6 37 24
73 41 84 39 159 99 198 159 38 56 38 90 2 133 -28 35 -51 40 -191 45 -47 2
-91 6 -98 10 -6 4 -11 4 -11 -1 0 -10 -163 -9 -179 1 -6 4 -11 4 -11 -1z"/>
<path d="M5244 580 c-55 -22 -73 -109 -31 -147 12 -11 43 -30 70 -41 51 -23
66 -44 47 -67 -18 -22 -66 -18 -101 7 l-29 22 -23 -23 -22 -22 30 -25 c17 -13
47 -29 68 -36 74 -22 157 27 157 94 0 48 -18 68 -86 99 -45 21 -64 35 -64 48
0 40 45 48 81 15 19 -17 21 -17 41 4 19 18 20 23 7 38 -30 36 -100 53 -145 34z"/>
<path d="M4368 501 l-45 -80 41 -3 c39 -3 42 -6 79 -72 20 -38 39 -72 42 -74
7 -8 80 -19 93 -14 12 4 -34 97 -128 260 l-37 63 -45 -80z"/>
<path d="M4620 434 l0 -136 33 -31 32 -32 5 50 5 50 47 3 c38 2 55 10 83 36
30 29 35 40 35 81 0 40 -5 52 -34 81 -33 33 -36 34 -120 34 l-86 0 0 -136z
m155 56 c24 -27 10 -71 -27 -84 -42 -15 -58 -2 -58 47 0 24 3 47 7 50 14 14
61 6 78 -13z"/>
<path d="M4909 503 c-3 -220 -3 -216 26 -240 34 -30 47 -21 43 31 l-3 41 55 7
c73 9 110 47 110 114 0 39 -5 51 -34 80 -33 33 -36 34 -115 34 l-81 0 -1 -67z
m139 -9 c43 -30 14 -94 -44 -94 -19 0 -23 6 -26 51 -1 28 -1 53 1 55 10 9 48
3 69 -12z"/>
<path d="M5545 560 c-35 -14 -76 -66 -85 -106 -14 -62 2 -113 51 -156 38 -35
47 -38 99 -38 47 0 63 5 93 28 40 30 67 85 67 135 0 45 -39 106 -80 128 -36
20 -109 24 -145 9z m120 -74 c32 -32 40 -69 25 -107 -26 -63 -88 -78 -133 -31
-20 21 -27 38 -27 68 1 81 82 123 135 70z"/>
<path d="M4280 340 c-23 -23 -24 -33 -10 -60 31 -57 109 -38 110 27 0 49 -63
70 -100 33z"/>
</g>
</svg>
